<?xml version="1.0" encoding="UTF-8"?><svg xmlns="http://www.w3.org/2000/svg" version="1.1" viewBox="0 0 500 500"><g><g id="project"><path style="fill:#fff" d="M196.5,349.2v-19.4h2.2v1.8c.5-.7,1.1-1.2,1.7-1.6.6-.4,1.4-.5,2.3-.5s2.2.3,3.2.9,1.6,1.5,2.1,2.6c.5,1.1.7,2.3.7,3.7s-.3,2.7-.8,3.9c-.5,1.1-1.3,2-2.2,2.6-1,.6-2,.9-3.1.9s-1.5-.2-2.1-.5c-.6-.3-1.1-.8-1.5-1.3v6.8h-2.4ZM198.7,337c0,1.8.4,3.1,1.1,4s1.6,1.3,2.6,1.3,2-.4,2.7-1.3c.8-.9,1.1-2.3,1.1-4.1s-.4-3.1-1.1-4-1.6-1.3-2.6-1.3-1.9.5-2.7,1.4c-.8.9-1.2,2.3-1.2,4.1Z"/><path style="fill:#fff" d="M216.4,343.9v-14h2.1v2.1c.5-1,1-1.6,1.5-2,.5-.3,1-.5,1.5-.5.8,0,1.6.3,2.4.8l-.8,2.2c-.6-.3-1.2-.5-1.7-.5s-1,.2-1.4.5c-.4.3-.7.7-.9,1.3-.3.8-.4,1.8-.4,2.8v7.3h-2.4Z"/><path style="fill:#fff" d="M228.7,336.9c0-2.6.7-4.5,2.2-5.8,1.2-1,2.7-1.6,4.4-1.6s3.5.6,4.7,1.9c1.2,1.3,1.8,3,1.8,5.2s-.3,3.2-.8,4.3c-.5,1-1.3,1.8-2.4,2.4-1,.6-2.2.9-3.4.9-2,0-3.5-.6-4.8-1.9s-1.8-3.1-1.8-5.4ZM231.2,336.9c0,1.8.4,3.1,1.2,4,.8.9,1.8,1.3,3,1.3s2.2-.4,2.9-1.3,1.2-2.3,1.2-4.1-.4-3-1.2-3.9c-.8-.9-1.8-1.3-2.9-1.3s-2.2.4-3,1.3-1.2,2.2-1.2,4Z"/><path style="fill:#fff" d="M246.2,349.3l.4-2c.5.1.8.2,1.1.2.5,0,.8-.2,1.1-.5.2-.3.4-1.1.4-2.4v-14.7h2.4v14.8c0,1.7-.2,2.9-.7,3.6-.6.9-1.5,1.3-2.8,1.3s-1.3,0-1.9-.2ZM249.2,327.3v-2.8h2.4v2.8h-2.4Z"/><path style="fill:#fff" d="M269.4,339.4l2.5.3c-.4,1.4-1.1,2.5-2.1,3.3s-2.4,1.2-4,1.2-3.7-.6-4.9-1.9c-1.2-1.3-1.8-3-1.8-5.3s.6-4.2,1.8-5.5,2.8-2,4.7-2,3.4.6,4.6,1.9c1.2,1.3,1.8,3.1,1.8,5.4s0,.4,0,.6h-10.4c0,1.5.5,2.7,1.3,3.5.8.8,1.8,1.2,2.9,1.2s1.6-.2,2.2-.7,1.1-1.2,1.5-2.2ZM261.6,335.5h7.8c-.1-1.2-.4-2.1-.9-2.6-.8-.9-1.7-1.4-2.9-1.4s-2,.4-2.7,1.1-1.2,1.7-1.2,2.9Z"/><path style="fill:#fff" d="M287.4,338.7l2.3.3c-.3,1.6-.9,2.9-2,3.8-1.1.9-2.3,1.4-3.9,1.4s-3.5-.6-4.6-1.9c-1.2-1.3-1.7-3-1.7-5.4s.3-2.8.8-4,1.3-2,2.3-2.6c1-.6,2.1-.9,3.3-.9s2.8.4,3.7,1.2c1,.8,1.6,1.9,1.9,3.3l-2.3.4c-.2-.9-.6-1.6-1.2-2.1-.6-.5-1.2-.7-2-.7-1.2,0-2.2.4-2.9,1.3-.7.9-1.1,2.2-1.1,4.1s.4,3.2,1.1,4.1c.7.9,1.7,1.3,2.8,1.3s1.7-.3,2.3-.9c.6-.6,1-1.4,1.2-2.6Z"/><path style="fill:#fff" d="M300.5,341.8l.3,2.1c-.7.1-1.3.2-1.8.2-.9,0-1.5-.1-2-.4-.5-.3-.8-.6-1-1.1-.2-.4-.3-1.4-.3-2.8v-8.1h-1.7v-1.8h1.7v-3.5l2.4-1.4v4.9h2.4v1.8h-2.4v8.2c0,.7,0,1.1.1,1.3,0,.2.2.3.4.5.2.1.5.2.8.2s.6,0,1,0Z"/></g><g id="Contour"><path id="bottom_left" style="fill:#2d3152" d="M138.7,256.6l54.9,95.1,55.6,96.2h-53.9c-35.3,0-67.9-18.8-85.5-49.4l-26.2-46.3,55.2-95.6Z"/><path id="middle_left" style="fill:#19384c" d="M139.2,256.6l-55.4,96-27.3-47.5c-17.6-30.6-17.6-68.2,0-98.8l26.5-45.9h111.7l-55.4,96.1Z"/><path id="top_left" style="fill:#0b404c" d="M304.5,160.9H82.6l27.1-46.8c17.6-30.6,50.2-49.4,85.5-49.4h53.6l55.6,96.2Z"/><path id="top_right" style="fill:#5a1c50" d="M304,160.9l-27.8-48.1-27.8-48.1h54.1c35.3,0,67.9,18.8,85.5,49.4l26.8,46.5-55.5,96-55.4-95.7Z"/><path id="middle_right" style="fill:#4b2351" d="M441.5,206.9c17.6,30.6,17.6,68.2,0,98.8l-26.8,46.4h-111l55.4-95.9,55.5-96,27,46.7Z"/><path id="bottom_right" style="fill: #3b2a4f" d="M193.5,351.7h221.5l-27,46.8c-17.6,30.6-50.2,49.4-85.5,49.4h-53.4l-55.6-96.2Z"/></g><g id="V"><path id="Shadow_Blue" style="fill:#369db9" d="M228.2,203.4c4.7,25.3,35,93.3,39.6,92.6,1.2-4.3-8.1-109.1,4.9-122,6.7-1.2,14,1.6,16.4,4.2,0,4.2-19.4,13.3-10.1,130.2.4,3.8-11,5.2-21.4,4.5-20.4-20-55.1-100.9-54.8-108,8.4-1.8,17-2.4,25.5-1.6Z"/><path id="Shadow_pink" style="fill:#99338a" d="M223,198c4.7,25.3,35,93.3,39.6,92.6,1.2-4.3-8.1-109.1,4.9-122,6.7-1.2,14,1.6,16.4,4.2,0,4.2-19.4,13.3-10.1,130.2.4,3.8-11,5.2-21.4,4.4-20.4-20-55.1-100.9-54.8-108,8.4-1.8,17-2.4,25.5-1.6Z"/><path id="V-2" style="fill:#fff" d="M225.7,200.7c4.7,25.3,35,93.3,39.6,92.6,1.2-4.3-8.1-109.1,4.9-122,6.7-1.2,14,1.6,16.4,4.2,0,4.2-19.4,13.3-10.1,130.2.4,3.8-11,5.2-21.4,4.5-20.4-20-55.1-100.9-54.8-108,8.4-1.8,17-2.4,25.5-1.6Z"/></g></g></svg>